<?xml version="1.0" standalone="no"?>
<!DOCTYPE svg PUBLIC "-//W3C//DTD SVG 1.1//EN"
"http://www.w3.org/Graphics/SVG/1.1/DTD/svg11.dtd">

<svg width="748" height="919" view_box="0 0 748 919"
xmlns="http://www.w3.org/2000/svg"
xmlns:link="http://www.w3.org/1999/xlink">\n\n<desc>Généré par Mocodo 2.3.7 le Thu, 22 Oct 2020 02:54:06</desc>

<rect id="frame" x="0" y="0" width="748" height="919" fill="#f7f7f7" stroke="none" stroke-width="0"/>

<!-- Association se dérouler -->
<line x1="222" y1="397" x2="222" y2="532" stroke="#e08214" stroke-width="2"/>
<text x="195.0" y="473" fill="#542788" font-family="Verdana" font-size="12">1,N</text>
<line x1="222" y1="675" x2="222" y2="532" stroke="#e08214" stroke-width="2"/>
<text x="227.0" y="591" fill="#542788" font-family="Verdana" font-size="12">1,N</text>
<g id="association-se dérouler">
	<path d="M 250 507 a 14 14 90 0 1 14 14 V 532 h -84 V 521 a 14 14 90 0 1 14 -14" fill="#fdb863" stroke="#fdb863" stroke-width="0"/>
	<path d="M 264 532.0 v 11 a 14 14 90 0 1 -14 14 H 194 a 14 14 90 0 1 -14 -14 V 532.0 H 84" fill="#fee0b6" stroke="#fee0b6" stroke-width="0"/>
	<rect x="180" y="507" width="84" height="50" fill="none" rx="14" stroke="#e08214" stroke-width="2"/>
	<line x1="180" y1="532" x2="264" y2="532" stroke="#e08214" stroke-width="1"/>
	<text x="187" y="524.7" fill="#000000" font-family="Verdana" font-size="12">se dérouler</text>
</g>

<!-- Association bénéficier de -->
<line x1="222" y1="397" x2="78" y2="397" stroke="#e08214" stroke-width="2"/>
<text x="157" y="414.0" fill="#542788" font-family="Verdana" font-size="12">0,1</text>
<line x1="78" y1="532" x2="78" y2="397" stroke="#e08214" stroke-width="2"/>
<text x="83.0" y="490" fill="#542788" font-family="Verdana" font-size="12">1,1</text>
<g id="association-bénéficier de">
	<path d="M 111 372 a 14 14 90 0 1 14 14 V 397 h -94 V 386 a 14 14 90 0 1 14 -14" fill="#fdb863" stroke="#fdb863" stroke-width="0"/>
	<path d="M 125 397.0 v 11 a 14 14 90 0 1 -14 14 H 45 a 14 14 90 0 1 -14 -14 V 397.0 H 94" fill="#fee0b6" stroke="#fee0b6" stroke-width="0"/>
	<rect x="31" y="372" width="94" height="50" fill="none" rx="14" stroke="#e08214" stroke-width="2"/>
	<line x1="31" y1="397" x2="125" y2="397" stroke="#e08214" stroke-width="1"/>
	<text x="38" y="389.7" fill="#000000" font-family="Verdana" font-size="12">bénéficier de</text>
</g>

<!-- Association comporter(ticket) -->
<path d="M222 675 C 237.205564658 722.50920848 189.205564658 786.842541813 78 868" fill="none" stroke="#e08214" stroke-width="2"/>
<text x="162" y="767.632138188" fill="#542788" font-family="Verdana" font-size="12">1,N</text>
<line x1="222" y1="868" x2="78" y2="868" stroke="#e08214" stroke-width="2"/>
<text x="152" y="885.0" fill="#542788" font-family="Verdana" font-size="12">0,N</text>
<g id="association-comporter(ticket)">
	<path d="M 133 843 a 14 14 90 0 1 14 14 V 868 h -138 V 857 a 14 14 90 0 1 14 -14" fill="#fdb863" stroke="#fdb863" stroke-width="0"/>
	<path d="M 147 868.0 v 11 a 14 14 90 0 1 -14 14 H 23 a 14 14 90 0 1 -14 -14 V 868.0 H 138" fill="#fee0b6" stroke="#fee0b6" stroke-width="0"/>
	<rect x="9" y="843" width="138" height="50" fill="none" rx="14" stroke="#e08214" stroke-width="2"/>
	<line x1="9" y1="868" x2="147" y2="868" stroke="#e08214" stroke-width="1"/>
	<text x="24" y="860.7" fill="#000000" font-family="Verdana" font-size="12">comporter(ticket)</text>
	<text x="16" y="885.8" fill="#000000" font-family="Verdana" font-size="12">prix_final(selon cas)</text>
</g>

<!-- Association possède -->
<line x1="222" y1="675" x2="522" y2="784" stroke="#e08214" stroke-width="2"/>
<text x="260" y="681.829760533" fill="#542788" font-family="Verdana" font-size="12">1,N</text>
<line x1="522" y1="868" x2="522" y2="784" stroke="#e08214" stroke-width="2"/>
<text x="527.0" y="826" fill="#542788" font-family="Verdana" font-size="12">1,1</text>
<g id="association-possède">
	<path d="M 540 759 a 14 14 90 0 1 14 14 V 784 h -64 V 773 a 14 14 90 0 1 14 -14" fill="#fdb863" stroke="#fdb863" stroke-width="0"/>
	<path d="M 554 784.0 v 11 a 14 14 90 0 1 -14 14 H 504 a 14 14 90 0 1 -14 -14 V 784.0 H 64" fill="#fee0b6" stroke="#fee0b6" stroke-width="0"/>
	<rect x="490" y="759" width="64" height="50" fill="none" rx="14" stroke="#e08214" stroke-width="2"/>
	<line x1="490" y1="784" x2="554" y2="784" stroke="#e08214" stroke-width="1"/>
	<text x="497" y="776.7" fill="#000000" font-family="Verdana" font-size="12">possède</text>
</g>

<!-- Association appartenir -->
<line x1="222" y1="868" x2="348" y2="868" stroke="#e08214" stroke-width="2"/>
<text x="270" y="885.0" fill="#542788" font-family="Verdana" font-size="12">1,N</text>
<line x1="522" y1="868" x2="348" y2="868" stroke="#e08214" stroke-width="2"/>
<text x="393" y="885.0" fill="#542788" font-family="Verdana" font-size="12">1,1</text>
<g id="association-appartenir">
	<path d="M 373 843 a 14 14 90 0 1 14 14 V 868 h -78 V 857 a 14 14 90 0 1 14 -14" fill="#fdb863" stroke="#fdb863" stroke-width="0"/>
	<path d="M 387 868.0 v 11 a 14 14 90 0 1 -14 14 H 323 a 14 14 90 0 1 -14 -14 V 868.0 H 78" fill="#fee0b6" stroke="#fee0b6" stroke-width="0"/>
	<rect x="309" y="843" width="78" height="50" fill="none" rx="14" stroke="#e08214" stroke-width="2"/>
	<line x1="309" y1="868" x2="387" y2="868" stroke="#e08214" stroke-width="1"/>
	<text x="316" y="860.7" fill="#000000" font-family="Verdana" font-size="12">appartenir</text>
</g>

<!-- Association souslieu -->
<path d="M222 675 C 205.333333333 708.333333333 157.333333333 708.333333333 78 675" fill="none" stroke="#e08214" stroke-width="2"/>
<text x="163" y="691.0" fill="#542788" font-family="Verdana" font-size="12">0,1</text>
<path d="M222 675 C 204.666666667 641.666666667 156.666666667 641.666666667 78 675" fill="none" stroke="#e08214" stroke-width="2"/>
<text x="162" y="668.0" fill="#542788" font-family="Verdana" font-size="12" onmouseover="show(evt,'lieu')" onmouseout="hide(evt)" style="cursor: pointer;">1,N</text>
<path d="M 189.006678119 651.450154558 L 176.070960581 655.009257222 L 181.158534722 649.898817969 L 178.397965465 643.237042126 Z" fill="#e08214" stroke-width="0"/>
<g id="association-souslieu">
	<path d="M 96 650 a 14 14 90 0 1 14 14 V 675 h -64 V 664 a 14 14 90 0 1 14 -14" fill="#fdb863" stroke="#fdb863" stroke-width="0"/>
	<path d="M 110 675.0 v 11 a 14 14 90 0 1 -14 14 H 60 a 14 14 90 0 1 -14 -14 V 675.0 H 64" fill="#fee0b6" stroke="#fee0b6" stroke-width="0"/>
	<rect x="46" y="650" width="64" height="50" fill="none" rx="14" stroke="#e08214" stroke-width="2"/>
	<line x1="46" y1="675" x2="110" y2="675" stroke="#e08214" stroke-width="1"/>
	<text x="53" y="667.7" fill="#000000" font-family="Verdana" font-size="12">souslieu</text>
	<text x="53" y="692.8" fill="#000000" font-family="Verdana" font-size="12">id_lieu</text>
</g>

<!-- Association référencé -->
<line x1="522" y1="675" x2="348" y2="675" stroke="#e08214" stroke-width="2"/>
<text x="436" y="692.0" fill="#542788" font-family="Verdana" font-size="12">1,1</text>
<line x1="222" y1="675" x2="348" y2="675" stroke="#e08214" stroke-width="2"/>
<text x="260" y="667.0" fill="#542788" font-family="Verdana" font-size="12">1,N</text>
<g id="association-référencé">
	<path d="M 370 650 a 14 14 90 0 1 14 14 V 675 h -72 V 664 a 14 14 90 0 1 14 -14" fill="#fdb863" stroke="#fdb863" stroke-width="0"/>
	<path d="M 384 675.0 v 11 a 14 14 90 0 1 -14 14 H 326 a 14 14 90 0 1 -14 -14 V 675.0 H 72" fill="#fee0b6" stroke="#fee0b6" stroke-width="0"/>
	<rect x="312" y="650" width="72" height="50" fill="none" rx="14" stroke="#e08214" stroke-width="2"/>
	<line x1="312" y1="675" x2="384" y2="675" stroke="#e08214" stroke-width="1"/>
	<text x="319" y="667.7" fill="#000000" font-family="Verdana" font-size="12">référencé</text>
</g>

<!-- Association correspond -->
<line x1="222" y1="397" x2="78" y2="228" stroke="#e08214" stroke-width="2"/>
<text x="157" y="361.95434545" fill="#542788" font-family="Verdana" font-size="12">1,1</text>
<line x1="222" y1="68" x2="78" y2="228" stroke="#e08214" stroke-width="2"/>
<text x="160" y="105.434305598" fill="#542788" font-family="Verdana" font-size="12">1,N</text>
<g id="association-correspond">
	<path d="M 105 203 a 14 14 90 0 1 14 14 V 228 h -82 V 217 a 14 14 90 0 1 14 -14" fill="#fdb863" stroke="#fdb863" stroke-width="0"/>
	<path d="M 119 228.0 v 11 a 14 14 90 0 1 -14 14 H 51 a 14 14 90 0 1 -14 -14 V 228.0 H 82" fill="#fee0b6" stroke="#fee0b6" stroke-width="0"/>
	<rect x="37" y="203" width="82" height="50" fill="none" rx="14" stroke="#e08214" stroke-width="2"/>
	<line x1="37" y1="228" x2="119" y2="228" stroke="#e08214" stroke-width="1"/>
	<text x="44" y="220.7" fill="#000000" font-family="Verdana" font-size="12">correspond</text>
</g>

<!-- Association interpréteur principal -->
<line x1="522" y1="397" x2="667" y2="397" stroke="#e08214" stroke-width="2"/>
<text x="568" y="414.0" fill="#542788" font-family="Verdana" font-size="12">1,N</text>
<line x1="522" y1="228" x2="667" y2="397" stroke="#e08214" stroke-width="2"/>
<text x="572" y="278.757174846" fill="#542788" font-family="Verdana" font-size="12">0,N</text>
<g id="association-interpréteur principal">
	<path d="M 725 372 a 14 14 90 0 1 14 14 V 397 h -144 V 386 a 14 14 90 0 1 14 -14" fill="#fdb863" stroke="#fdb863" stroke-width="0"/>
	<path d="M 739 397.0 v 11 a 14 14 90 0 1 -14 14 H 609 a 14 14 90 0 1 -14 -14 V 397.0 H 144" fill="#fee0b6" stroke="#fee0b6" stroke-width="0"/>
	<rect x="595" y="372" width="144" height="50" fill="none" rx="14" stroke="#e08214" stroke-width="2"/>
	<line x1="595" y1="397" x2="739" y2="397" stroke="#e08214" stroke-width="1"/>
	<text x="602" y="389.7" fill="#000000" font-family="Verdana" font-size="12">interpréteur principal</text>
</g>

<!-- Association secondaire -->
<line x1="522" y1="228" x2="348" y2="228" stroke="#e08214" stroke-width="2"/>
<text x="450" y="245.0" fill="#542788" font-family="Verdana" font-size="12">0,N</text>
<line x1="522" y1="68" x2="348" y2="228" stroke="#e08214" stroke-width="2"/>
<text x="474.672789919" y="127" fill="#542788" font-family="Verdana" font-size="12">0,N</text>
<g id="association-secondaire">
	<path d="M 374 203 a 14 14 90 0 1 14 14 V 228 h -80 V 217 a 14 14 90 0 1 14 -14" fill="#fdb863" stroke="#fdb863" stroke-width="0"/>
	<path d="M 388 228.0 v 11 a 14 14 90 0 1 -14 14 H 322 a 14 14 90 0 1 -14 -14 V 228.0 H 80" fill="#fee0b6" stroke="#fee0b6" stroke-width="0"/>
	<rect x="308" y="203" width="80" height="50" fill="none" rx="14" stroke="#e08214" stroke-width="2"/>
	<line x1="308" y1="228" x2="388" y2="228" stroke="#e08214" stroke-width="1"/>
	<text x="315" y="220.7" fill="#000000" font-family="Verdana" font-size="12">secondaire</text>
</g>

<!-- Association travailleur -->
<line x1="667" y1="532" x2="667" y2="675" stroke="#e08214" stroke-width="2"/>
<text x="672.0" y="608" fill="#542788" font-family="Verdana" font-size="12">0,N</text>
<line x1="522" y1="675" x2="667" y2="675" stroke="#e08214" stroke-width="2"/>
<text x="587" y="692.0" fill="#542788" font-family="Verdana" font-size="12">1,N</text>
<g id="association-travailleur">
	<path d="M 691 650 a 14 14 90 0 1 14 14 V 675 h -76 V 664 a 14 14 90 0 1 14 -14" fill="#fdb863" stroke="#fdb863" stroke-width="0"/>
	<path d="M 705 675.0 v 11 a 14 14 90 0 1 -14 14 H 643 a 14 14 90 0 1 -14 -14 V 675.0 H 76" fill="#fee0b6" stroke="#fee0b6" stroke-width="0"/>
	<rect x="629" y="650" width="76" height="50" fill="none" rx="14" stroke="#e08214" stroke-width="2"/>
	<line x1="629" y1="675" x2="705" y2="675" stroke="#e08214" stroke-width="1"/>
	<text x="636" y="667.7" fill="#000000" font-family="Verdana" font-size="12">travailleur</text>
</g>

<!-- Association enregistrer -->
<line x1="222" y1="397" x2="222" y2="228" stroke="#e08214" stroke-width="2"/>
<text x="227.0" y="330" fill="#542788" font-family="Verdana" font-size="12">0,1</text>
<line x1="348" y1="68" x2="222" y2="228" stroke="#e08214" stroke-width="2"/>
<text x="314.034487306" y="127" fill="#542788" font-family="Verdana" font-size="12">1,1</text>
<g id="association-enregistrer">
	<path d="M 249 203 a 14 14 90 0 1 14 14 V 228 h -82 V 217 a 14 14 90 0 1 14 -14" fill="#fdb863" stroke="#fdb863" stroke-width="0"/>
	<path d="M 263 228.0 v 11 a 14 14 90 0 1 -14 14 H 195 a 14 14 90 0 1 -14 -14 V 228.0 H 82" fill="#fee0b6" stroke="#fee0b6" stroke-width="0"/>
	<rect x="181" y="203" width="82" height="50" fill="none" rx="14" stroke="#e08214" stroke-width="2"/>
	<line x1="181" y1="228" x2="263" y2="228" stroke="#e08214" stroke-width="1"/>
	<text x="188" y="220.7" fill="#000000" font-family="Verdana" font-size="12">enregistrer</text>
</g>

<!-- Association disposer -->
<line x1="222" y1="397" x2="348" y2="532" stroke="#e08214" stroke-width="2"/>
<text x="266" y="437.512094832" fill="#542788" font-family="Verdana" font-size="12">0,1</text>
<line x1="522" y1="532" x2="348" y2="532" stroke="#e08214" stroke-width="2"/>
<text x="439" y="549.0" fill="#542788" font-family="Verdana" font-size="12">1,1</text>
<g id="association-disposer">
	<path d="M 367 507 a 14 14 90 0 1 14 14 V 532 h -66 V 521 a 14 14 90 0 1 14 -14" fill="#fdb863" stroke="#fdb863" stroke-width="0"/>
	<path d="M 381 532.0 v 11 a 14 14 90 0 1 -14 14 H 329 a 14 14 90 0 1 -14 -14 V 532.0 H 66" fill="#fee0b6" stroke="#fee0b6" stroke-width="0"/>
	<rect x="315" y="507" width="66" height="50" fill="none" rx="14" stroke="#e08214" stroke-width="2"/>
	<line x1="315" y1="532" x2="381" y2="532" stroke="#e08214" stroke-width="1"/>
	<text x="322" y="524.7" fill="#000000" font-family="Verdana" font-size="12">disposer</text>
</g>

<!-- Association programme -->
<line x1="522" y1="397" x2="348" y2="397" stroke="#e08214" stroke-width="2"/>
<text x="454" y="414.0" fill="#542788" font-family="Verdana" font-size="12">1,N</text>
<line x1="222" y1="397" x2="348" y2="397" stroke="#e08214" stroke-width="2"/>
<text x="266" y="389.0" fill="#542788" font-family="Verdana" font-size="12">1,N</text>
<g id="association-programme">
	<path d="M 389 372 a 14 14 90 0 1 14 14 V 397 h -110 V 386 a 14 14 90 0 1 14 -14" fill="#fdb863" stroke="#fdb863" stroke-width="0"/>
	<path d="M 403 397.0 v 11 a 14 14 90 0 1 -14 14 H 307 a 14 14 90 0 1 -14 -14 V 397.0 H 110" fill="#fee0b6" stroke="#fee0b6" stroke-width="0"/>
	<rect x="293" y="372" width="110" height="50" fill="none" rx="14" stroke="#e08214" stroke-width="2"/>
	<line x1="293" y1="397" x2="403" y2="397" stroke="#e08214" stroke-width="1"/>
	<text x="312" y="389.7" fill="#000000" font-family="Verdana" font-size="12">programme</text>
	<text x="300" y="414.8" fill="#000000" font-family="Verdana" font-size="12">ordre (position)</text>
</g>

<!-- Entity salle -->
<g id="entity-salle">
	<g id="frame-salle">
		<rect x="462" y="616" width="120" height="25" fill="#b2abd2" stroke="#b2abd2" stroke-width="0"/>
		<rect x="462" y="641.0" width="120" height="93" fill="#d8daeb" stroke="#d8daeb" stroke-width="0"/>
		<rect x="462" y="616" width="120" height="118" fill="none" stroke="#8073ac" stroke-width="2"/>
		<line x1="462" y1="641" x2="582" y2="641" stroke="#8073ac" stroke-width="1"/>
	</g>
	<text x="508" y="633.7" fill="#000000" font-family="Verdana" font-size="12">salle</text>
	<text x="467" y="658.7" fill="#000000" font-family="Verdana" font-size="12">nom(varchar(42))</text>
	<line x1="467" y1="661" x2="577" y2="661" stroke="#000000" stroke-width="1"/>
	<text x="467" y="675.8" fill="#000000" font-family="Verdana" font-size="12">adr</text>
	<text x="467" y="692.8" fill="#000000" font-family="Verdana" font-size="12">directeur</text>
	<text x="467" y="709.8" fill="#000000" font-family="Verdana" font-size="12">charge_com</text>
	<text x="467" y="726.8" fill="#000000" font-family="Verdana" font-size="12">chef_regi</text>
</g>

<!-- Entity bande_promo -->
<g id="entity-bande_promo">
	<g id="frame-bande_promo">
		<rect x="465" y="473" width="114" height="25" fill="#b2abd2" stroke="#b2abd2" stroke-width="0"/>
		<rect x="465" y="498.0" width="114" height="93" fill="#d8daeb" stroke="#d8daeb" stroke-width="0"/>
		<rect x="465" y="473" width="114" height="118" fill="none" stroke="#8073ac" stroke-width="2"/>
		<line x1="465" y1="498" x2="579" y2="498" stroke="#8073ac" stroke-width="1"/>
	</g>
	<text x="480" y="490.7" fill="#000000" font-family="Verdana" font-size="12">bande_promo</text>
	<text x="470" y="515.7" fill="#000000" font-family="Verdana" font-size="12">id_bande_promo</text>
	<line x1="470" y1="518" x2="573" y2="518" stroke="#000000" stroke-width="1"/>
	<text x="470" y="532.8" fill="#000000" font-family="Verdana" font-size="12">taille (en ko)</text>
	<text x="470" y="549.8" fill="#000000" font-family="Verdana" font-size="12">format</text>
	<text x="470" y="566.8" fill="#000000" font-family="Verdana" font-size="12">mots clés</text>
	<text x="470" y="583.8" fill="#000000" font-family="Verdana" font-size="12">durée</text>
</g>

<!-- Entity concert -->
<g id="entity-concert">
	<g id="frame-concert">
		<rect x="183" y="338" width="78" height="25" fill="#b2abd2" stroke="#b2abd2" stroke-width="0"/>
		<rect x="183" y="363.0" width="78" height="93" fill="#d8daeb" stroke="#d8daeb" stroke-width="0"/>
		<rect x="183" y="338" width="78" height="118" fill="none" stroke="#8073ac" stroke-width="2"/>
		<line x1="183" y1="363" x2="261" y2="363" stroke="#8073ac" stroke-width="1"/>
	</g>
	<text x="199" y="355.7" fill="#000000" font-family="Verdana" font-size="12">concert</text>
	<text x="188" y="380.7" fill="#000000" font-family="Verdana" font-size="12">id_concert</text>
	<line x1="188" y1="383" x2="252" y2="383" stroke="#000000" stroke-width="1"/>
	<text x="188" y="397.8" fill="#000000" font-family="Verdana" font-size="12">date</text>
	<text x="188" y="414.8" fill="#000000" font-family="Verdana" font-size="12">heure</text>
	<text x="188" y="431.8" fill="#000000" font-family="Verdana" font-size="12">salle_spect</text>
	<text x="188" y="448.8" fill="#000000" font-family="Verdana" font-size="12">theme</text>
</g>

<!-- Entity entracte -->
<g id="entity-entracte">
	<g id="frame-entracte">
		<rect x="38" y="498" width="80" height="25" fill="#b2abd2" stroke="#b2abd2" stroke-width="0"/>
		<rect x="38" y="523.0" width="80" height="43" fill="#d8daeb" stroke="#d8daeb" stroke-width="0"/>
		<rect x="38" y="498" width="80" height="68" fill="none" stroke="#8073ac" stroke-width="2"/>
		<line x1="38" y1="523" x2="118" y2="523" stroke="#8073ac" stroke-width="1"/>
	</g>
	<text x="52" y="515.7" fill="#000000" font-family="Verdana" font-size="12">entracte</text>
	<text x="43" y="540.8" fill="#000000" font-family="Verdana" font-size="12">id_entracte</text>
	<line x1="43" y1="543" x2="112" y2="543" stroke="#000000" stroke-width="1"/>
	<text x="43" y="557.8" fill="#000000" font-family="Verdana" font-size="12">situe</text>
</g>

<!-- Entity affiche -->
<g id="entity-affiche">
	<g id="frame-affiche">
		<rect x="187" y="9" width="70" height="25" fill="#b2abd2" stroke="#b2abd2" stroke-width="0"/>
		<rect x="187" y="34.0" width="70" height="93" fill="#d8daeb" stroke="#d8daeb" stroke-width="0"/>
		<rect x="187" y="9" width="70" height="118" fill="none" stroke="#8073ac" stroke-width="2"/>
		<line x1="187" y1="34" x2="257" y2="34" stroke="#8073ac" stroke-width="1"/>
	</g>
	<text x="201" y="26.7" fill="#000000" font-family="Verdana" font-size="12">affiche</text>
	<text x="192" y="51.7" fill="#000000" font-family="Verdana" font-size="12">id_affiche</text>
	<line x1="192" y1="54" x2="251" y2="54" stroke="#000000" stroke-width="1"/>
	<text x="192" y="68.8" fill="#000000" font-family="Verdana" font-size="12">img_imp</text>
	<text x="192" y="85.8" fill="#000000" font-family="Verdana" font-size="12">img_web</text>
	<text x="192" y="102.8" fill="#000000" font-family="Verdana" font-size="12">colori</text>
	<text x="192" y="119.8" fill="#000000" font-family="Verdana" font-size="12">prof_coul</text>
</g>

<!-- Entity lieu -->
<g id="entity-lieu">
	<g id="frame-lieu">
		<rect x="189" y="599" width="66" height="25" fill="#b2abd2" stroke="#b2abd2" stroke-width="0"/>
		<rect x="189" y="624.0" width="66" height="127" fill="#d8daeb" stroke="#d8daeb" stroke-width="0"/>
		<rect x="189" y="599" width="66" height="152" fill="none" stroke="#8073ac" stroke-width="2"/>
		<line x1="189" y1="624" x2="255" y2="624" stroke="#8073ac" stroke-width="1"/>
	</g>
	<text x="211" y="616.7" fill="#000000" font-family="Verdana" font-size="12">lieu</text>
	<text x="194" y="641.7" fill="#000000" font-family="Verdana" font-size="12">id_lieu</text>
	<line x1="194" y1="644" x2="235" y2="644" stroke="#000000" stroke-width="1"/>
	<text x="194" y="658.7" fill="#000000" font-family="Verdana" font-size="12">nom</text>
	<text x="194" y="675.8" fill="#000000" font-family="Verdana" font-size="12">adr</text>
	<text x="194" y="692.8" fill="#000000" font-family="Verdana" font-size="12">localité</text>
	<text x="194" y="709.8" fill="#000000" font-family="Verdana" font-size="12">dep</text>
	<text x="194" y="726.8" fill="#000000" font-family="Verdana" font-size="12">soustype</text>
</g>

<!-- Entity personne -->
<g id="entity-personne">
	<g id="frame-personne">
		<rect x="624" y="473" width="86" height="25" fill="#b2abd2" stroke="#b2abd2" stroke-width="0"/>
		<rect x="624" y="498.0" width="86" height="93" fill="#d8daeb" stroke="#d8daeb" stroke-width="0"/>
		<rect x="624" y="473" width="86" height="118" fill="none" stroke="#8073ac" stroke-width="2"/>
		<line x1="624" y1="498" x2="710" y2="498" stroke="#8073ac" stroke-width="1"/>
	</g>
	<text x="638" y="490.7" fill="#000000" font-family="Verdana" font-size="12">personne</text>
	<text x="629" y="515.7" fill="#000000" font-family="Verdana" font-size="12">id_personne</text>
	<line x1="629" y1="518" x2="704" y2="518" stroke="#000000" stroke-width="1"/>
	<text x="629" y="532.8" fill="#000000" font-family="Verdana" font-size="12">nom</text>
	<text x="629" y="549.8" fill="#000000" font-family="Verdana" font-size="12">prénom</text>
	<text x="629" y="566.8" fill="#000000" font-family="Verdana" font-size="12">tél</text>
	<text x="629" y="583.8" fill="#000000" font-family="Verdana" font-size="12">email</text>
</g>

<!-- Entity disque -->
<g id="entity-disque">
	<g id="frame-disque">
		<rect x="307" y="26" width="82" height="25" fill="#b2abd2" stroke="#b2abd2" stroke-width="0"/>
		<rect x="307" y="51.0" width="82" height="59" fill="#d8daeb" stroke="#d8daeb" stroke-width="0"/>
		<rect x="307" y="26" width="82" height="84" fill="none" stroke="#8073ac" stroke-width="2"/>
		<line x1="307" y1="51" x2="389" y2="51" stroke="#8073ac" stroke-width="1"/>
	</g>
	<text x="328" y="43.7" fill="#000000" font-family="Verdana" font-size="12">disque</text>
	<text x="312" y="68.8" fill="#000000" font-family="Verdana" font-size="12">id_disque</text>
	<line x1="312" y1="71" x2="371" y2="71" stroke="#000000" stroke-width="1"/>
	<text x="312" y="85.8" fill="#000000" font-family="Verdana" font-size="12">nom</text>
	<text x="312" y="102.8" fill="#000000" font-family="Verdana" font-size="12">prix_disque</text>
</g>

<!-- Entity catégorie -->
<g id="entity-catégorie">
	<g id="frame-catégorie">
		<rect x="179" y="826" width="86" height="25" fill="#b2abd2" stroke="#b2abd2" stroke-width="0"/>
		<rect x="179" y="851.0" width="86" height="59" fill="#d8daeb" stroke="#d8daeb" stroke-width="0"/>
		<rect x="179" y="826" width="86" height="84" fill="none" stroke="#8073ac" stroke-width="2"/>
		<line x1="179" y1="851" x2="265" y2="851" stroke="#8073ac" stroke-width="1"/>
	</g>
	<text x="193" y="843.7" fill="#000000" font-family="Verdana" font-size="12">catégorie</text>
	<text x="184" y="868.8" fill="#000000" font-family="Verdana" font-size="12">id_catégorie</text>
	<line x1="184" y1="871" x2="259" y2="871" stroke="#000000" stroke-width="1"/>
	<text x="184" y="885.8" fill="#000000" font-family="Verdana" font-size="12">nom</text>
	<text x="184" y="902.8" fill="#000000" font-family="Verdana" font-size="12">prix_ref</text>
</g>

<!-- Entity spécialité -->
<g id="entity-spécialité">
	<g id="frame-spécialité">
		<rect x="468" y="26" width="108" height="25" fill="#b2abd2" stroke="#b2abd2" stroke-width="0"/>
		<rect x="468" y="51.0" width="108" height="59" fill="#d8daeb" stroke="#d8daeb" stroke-width="0"/>
		<rect x="468" y="26" width="108" height="84" fill="none" stroke="#8073ac" stroke-width="2"/>
		<line x1="468" y1="51" x2="576" y2="51" stroke="#8073ac" stroke-width="1"/>
	</g>
	<text x="493" y="43.7" fill="#000000" font-family="Verdana" font-size="12">spécialité</text>
	<text x="473" y="68.8" fill="#000000" font-family="Verdana" font-size="12">id_spécialité</text>
	<line x1="473" y1="71" x2="549" y2="71" stroke="#000000" stroke-width="1"/>
	<text x="473" y="85.8" fill="#000000" font-family="Verdana" font-size="12">nom (ex: violon</text>
	<text x="473" y="102.8" fill="#000000" font-family="Verdana" font-size="12">harpe)</text>
</g>

<!-- Entity place -->
<g id="entity-place">
	<g id="frame-place">
		<rect x="419" y="834" width="206" height="25" fill="#b2abd2" stroke="#b2abd2" stroke-width="0"/>
		<rect x="419" y="859.0" width="206" height="43" fill="#d8daeb" stroke="#d8daeb" stroke-width="0"/>
		<rect x="419" y="834" width="206" height="68" fill="none" stroke="#8073ac" stroke-width="2"/>
		<line x1="419" y1="859" x2="625" y2="859" stroke="#8073ac" stroke-width="1"/>
	</g>
	<text x="506" y="851.7" fill="#000000" font-family="Verdana" font-size="12">place</text>
	<text x="424" y="876.8" fill="#000000" font-family="Verdana" font-size="12">id_place</text>
	<line x1="424" y1="879" x2="475" y2="879" stroke="#000000" stroke-width="1"/>
	<text x="424" y="893.8" fill="#000000" font-family="Verdana" font-size="12">XXXstatut(vendu/réservé FNAC)</text>
</g>

<!-- Entity morceau -->
<g id="entity-morceau">
	<g id="frame-morceau">
		<rect x="481" y="346" width="82" height="25" fill="#b2abd2" stroke="#b2abd2" stroke-width="0"/>
		<rect x="481" y="371.0" width="82" height="77" fill="#d8daeb" stroke="#d8daeb" stroke-width="0"/>
		<rect x="481" y="346" width="82" height="102" fill="none" stroke="#8073ac" stroke-width="2"/>
		<line x1="481" y1="371" x2="563" y2="371" stroke="#8073ac" stroke-width="1"/>
	</g>
	<text x="495" y="363.7" fill="#000000" font-family="Verdana" font-size="12">morceau</text>
	<text x="486" y="388.7" fill="#000000" font-family="Verdana" font-size="12">id_morceau</text>
	<line x1="486" y1="391" x2="558" y2="391" stroke="#000000" stroke-width="1"/>
	<text x="486" y="405.8" fill="#000000" font-family="Verdana" font-size="12">auteur</text>
	<text x="486" y="422.8" fill="#000000" font-family="Verdana" font-size="12">titre</text>
	<text x="486" y="439.8" fill="#000000" font-family="Verdana" font-size="12">durée</text>
</g>

<!-- Entity interprète -->
<g id="entity-interprète">
	<g id="frame-interprète">
		<rect x="477" y="135" width="90" height="25" fill="#b2abd2" stroke="#b2abd2" stroke-width="0"/>
		<rect x="477" y="160.0" width="90" height="161" fill="#d8daeb" stroke="#d8daeb" stroke-width="0"/>
		<rect x="477" y="135" width="90" height="186" fill="none" stroke="#8073ac" stroke-width="2"/>
		<line x1="477" y1="160" x2="567" y2="160" stroke="#8073ac" stroke-width="1"/>
	</g>
	<text x="491" y="152.7" fill="#000000" font-family="Verdana" font-size="12">interprète</text>
	<text x="482" y="177.7" fill="#000000" font-family="Verdana" font-size="12">id_interprète</text>
	<line x1="482" y1="180" x2="561" y2="180" stroke="#000000" stroke-width="1"/>
	<text x="482" y="194.7" fill="#000000" font-family="Verdana" font-size="12">nom</text>
	<text x="482" y="211.7" fill="#000000" font-family="Verdana" font-size="12">prénom</text>
	<text x="482" y="228.8" fill="#000000" font-family="Verdana" font-size="12">tel</text>
	<text x="482" y="245.8" fill="#000000" font-family="Verdana" font-size="12">email</text>
	<text x="482" y="262.8" fill="#000000" font-family="Verdana" font-size="12">naiss</text>
	<text x="482" y="279.8" fill="#000000" font-family="Verdana" font-size="12">nat</text>
	<text x="482" y="296.8" fill="#000000" font-family="Verdana" font-size="12">resu_bio</text>
	<text x="482" y="313.8" fill="#000000" font-family="Verdana" font-size="12">spe_ppal</text>
</g>

<!-- Annotations -->
<script type="text/ecmascript">
<![CDATA[
	function show(evt, text) {
		var pos = (evt.target.getAttribute("y") < 874) ? "bottom" : "top"
		var annotation = document.getElementById(pos + "_annotation_EA5bXBfp")
		annotation.textContent = text
		annotation.setAttributeNS(null, "visibility", "visible");
		document.getElementById(pos + "_overlay_EA5bXBfp").setAttributeNS(null, "visibility", "visible");
	}
	function hide(evt) {
		document.getElementById("top_annotation_EA5bXBfp").setAttributeNS(null, "visibility", "hidden");
		document.getElementById("top_overlay_EA5bXBfp").setAttributeNS(null, "visibility", "hidden");
		document.getElementById("bottom_annotation_EA5bXBfp").setAttributeNS(null, "visibility", "hidden");
		document.getElementById("bottom_overlay_EA5bXBfp").setAttributeNS(null, "visibility", "hidden");
	}
]]>
</script>
<rect id="top_overlay_EA5bXBfp" x="0" y="0" width="748" height="40" fill="#b35806" stroke-width="0" opacity="0.9" visibility="hidden"/>
<text id="top_annotation_EA5bXBfp" text-anchor="middle" x="374.0" y="24" fill="#f7f7f7" font-family="Verdana" font-size="14" visibility="hidden"></text>
<rect id="bottom_overlay_EA5bXBfp" x="0" y="879" width="748" height="40" fill="#b35806" stroke-width="0" opacity="0.9" visibility="hidden"/>
<text id="bottom_annotation_EA5bXBfp" text-anchor="middle" x="374.0" y="903" fill="#f7f7f7" font-family="Verdana" font-size="14" visibility="hidden"></text>
</svg>